# xmcd
#
# Track frame offsets:
#	150
#	20510
#	39826
#	56090
#	75882
#	93907
#	115631
#	137065
#	161240
#	182684
#	210186
#	223975
#	244263
#	273279
#	307087
#
# Disc length: 4438 seconds
#
# Revision: 0
# Processed by: cddbd v1.5.2PL0 Copyright (c) Steve Scherf et al.
# Submitted via: EasyCDDAExtractor 15.3.0.1
#
DISCID=c711540f
DTITLE=Various Artist - 2012 Steppin' Music Vol. 15
DYEAR=2012
DGENRE=R&B
TTITLE0=Wale feat. Jeremiah and Rick Ross - That Way
TTITLE1=Harace Brown - Trippin'
TTITLE2=Ashley Clarke - Deliverance
TTITLE3=Gordon Chambers - That's When You Fall In Love
TTITLE4=Webster Lewis - Give Me Some Emotion
TTITLE5=Teena Marie - Young Love
TTITLE6=Merge Of Equals - Out Of Body
TTITLE7=Lynne Fiddmont - All The Way
TTITLE8=K-Dee - Hitting Corners
TTITLE9=DJ Cam - Everybody Loves The Sunshine
TTITLE10=The Miracles feat Billy Griffin - Do It Baby
TTITLE11=Alex Cortiz - Smooth
TTITLE12=Cardell - When We Make Love
TTITLE13=Pete Rock - A Little Soul
TTITLE14=Ronny Jordan - Birghter Day
EXTD=
EXTT0=
EXTT1=
EXTT2=
EXTT3=
EXTT4=
EXTT5=
EXTT6=
EXTT7=
EXTT8=
EXTT9=
EXTT10=
EXTT11=
EXTT12=
EXTT13=
EXTT14=
PLAYORDER=
